<?xml version="1.0" encoding="UTF-8"?>
<svg id="Capa_2" data-name="Capa 2" xmlns="http://www.w3.org/2000/svg" viewBox="0 0 161.12 129.12">
  <defs>
    <style>
      .cls-1 {
        fill: #d8d8d8;
      }
    </style>
  </defs>
  <g id="Layer_1" data-name="Layer 1">
    <path class="cls-1" d="M144.69,84.54c-.68,9.23-11.35,20.29-20.94,20.03-5.29,8.58-13.2,15.35-22.36,19.53-2.7,1.23-5.64,2.14-8.52,2.92-4.37,1.19-9.03,1.92-13.53,2.09h-3.89l-3.38-.23c-16.39-1.43-31.59-10.29-40.28-24.27-8.56-.86-16.68-8.67-19.12-16.7l-.74-3.32c.06-.89-.07-1.87,0-2.75.06-.69.31-1.73.49-2.43.35-1.4.37-1.73,1.08-3.02L0,59.93h20.34l-13.47-15.32,25.09-5.28-10.83-13.49h20.87v-15.04l11.09,10.04,3.17-15.58,14,10.83L77.12,0l9.77,16.61,23.51-12.15v17.17l23.77-3.7-3.43,15.85,13.99,5.55-7.38,8.45,16.11,10.3-11.62,7.4,19.28,3.96-16.43,15.1Z"/>
  </g>
</svg>