<?xml version="1.0" encoding="UTF-8"?>
<svg id="Capa_2" data-name="Capa 2" xmlns="http://www.w3.org/2000/svg" viewBox="0 0 125.61 103.91">
  <defs>
    <style>
      .cls-1 {
        fill: #d8d8d8;
      }
    </style>
  </defs>
  <g id="Layer_1" data-name="Layer 1">
    <path class="cls-1" d="M112.42,43.34c.11.48.21.97.3,1.46,7.62,1.34,13.42,9.31,12.86,16.96-.65,8.73-10.74,19.19-19.81,18.94-5.01,8.11-12.48,14.52-21.14,18.47-2.55,1.17-5.34,2.02-8.06,2.76-4.13,1.13-8.54,1.82-12.8,1.98h-3.68l-3.19-.22c-15.5-1.35-29.88-9.73-38.09-22.95-8.09-.82-15.77-8.2-18.08-15.79L.02,61.81c.05-.84-.07-1.76,0-2.6.06-.66.3-1.64.46-2.3,1.39-5.55,6-10.59,11.61-11.99.2-1.17.3-1.7.58-2.85l-.38-.24c-1.57-.62-1.79-1.67-1.79-3.46,0-1.17.47-2.23,1.24-3-.77-.89-1.24-2.05-1.24-3.33,0-2.52,1.84-4.63,4.24-5.03,0-.04,0-.07,0-.1,0-2.29,1.86-4.15,4.15-4.15.1,0,.21,0,.31.02-.14-.35-.22-.74-.22-1.15,0-1.68,1.36-3.05,3.05-3.05.04,0,.08,0,.12,0-.08-.27-.12-.56-.12-.86,0-1.84,1.49-3.33,3.33-3.33,0-1.93,1.56-3.49,3.49-3.49.44,0,.87.08,1.26.23-.06-.24-.09-.49-.09-.75,0-1.76,1.43-3.2,3.2-3.2.07,0,.14,0,.2.01.56-1.74,2.19-3,4.12-3,.46,0,.91.07,1.32.21.72-.86,1.8-1.4,3-1.4.98,0,1.88.36,2.57.96-.01-.12-.02-.25-.02-.38,0-1.99,1.62-3.6,3.6-3.6,1.17,0,2.2.56,2.86,1.42.53-.31,1.15-.49,1.81-.49,1.06,0,2.01.46,2.65,1.19.66-1.26,1.99-2.12,3.5-2.12,1.04,0,1.99.4,2.7,1.05.59-.65,1.44-1.05,2.39-1.05s1.83.42,2.42,1.09c.65-.67,1.56-1.09,2.57-1.09,1.28,0,2.41.67,3.04,1.68.86-1.02,2.14-1.68,3.58-1.68,2.17,0,3.99,1.48,4.5,3.49.56-.3,1.2-.47,1.89-.47,1.84,0,3.41,1.23,3.9,2.92.51-.27,1.08-.41,1.68-.41,1.51,0,2.8.88,3.4,2.15.46-.19.96-.3,1.49-.3,1.88,0,3.42,1.37,3.71,3.16h.05c2.13,0,3.86,1.73,3.86,3.86v.02c.1-.01.21-.02.32-.02,2.31,0,4.18,1.87,4.18,4.18v.02c.35-.09.72-.14,1.09-.14,2.38,0,4.3,1.92,4.3,4.29,0,.77-.2,1.49-.56,2.12,1.44.48,2.48,1.85,2.48,3.46,0,.58-.14,1.13-.38,1.62,1.71.62,2.92,2.26,2.92,4.19,0,.6-.12,1.18-.34,1.71,1.39.65,2.36,2.08,2.36,3.72,0,2.27-1.71,3.77-3.98,3.77Z"/>
  </g>
</svg>