<?xml version="1.0" encoding="UTF-8"?>
<svg id="Capa_2" data-name="Capa 2" xmlns="http://www.w3.org/2000/svg" viewBox="0 0 157.34 124.62">
  <defs>
    <style>
      .cls-1 {
        fill: #d8d8d8;
      }
    </style>
  </defs>
  <g id="Layer_1" data-name="Layer 1">
    <path class="cls-1" d="M114.16,99.68c-3.03,2.28-6.31,4.23-9.77,5.81-2.7,1.23-5.64,2.14-8.52,2.92-4.37,1.19-9.03,1.92-13.53,2.09h-3.89l-3.38-.23c-11.77-1.02-22.93-5.88-31.51-13.72l-.27.22,2.14,9.1c.42,1.79-.04,3.68-1.24,5.07h0c-.86,1-1.35,2.27-1.39,3.59l-.09,3.3c-.07,2.65-1.71,5.02-4.17,6.02l-.66.27c-1.64.67-3.47.66-5.1-.01h0c-.47-.19-.92-.44-1.33-.74l-2.24-1.6c-.6-.43-1.13-.96-1.56-1.56l-.49-.68c-1-1.4-1.43-3.14-1.18-4.84l.68-4.73c.2-1.39-1.42-2.29-2.5-1.4l-1.44,1.2c-.53.44-1.28.47-1.84.09l-5.76-3.94c-.15-.11-.29-.24-.39-.39h0c-.67-.97-2.15-.85-2.65.22l-.35.74c-.25.54-.79.88-1.39.88h-2.6c-.3,0-.6-.09-.85-.26l-2.81-1.88c-.51-.34-.77-.95-.66-1.56l.88-4.7c.33-1.74-.54-3.48-2.12-4.27h0C.85,94.05,0,92.68,0,91.18v-5.11s0-3.77,0-3.77v-11.23c0-1.63.52-3.23,1.48-4.55l4.86-6.7c.96-1.32,1.48-2.92,1.48-4.55h0c0-3.01,1.41-5.85,3.8-7.68l1.35-1.03c1.21-.92,1.92-2.36,1.92-3.88v-.05c0-.68.14-1.36.42-1.98l1.47-3.32c.48-1.08,1.3-1.96,2.34-2.52l.72-.39c1.72-.92,2.8-2.71,2.8-4.67v-2.05c0-.8-.15-1.58-.44-2.32h0c-.87-2.24-.25-4.79,1.56-6.37l4.92-4.3c.44-.39.7-.95.7-1.53h0c0-1.63.74-3.18,2-4.21l4.77-3.88c1.03-.84,2.31-1.29,3.64-1.29h13.47c.8,0,1.59-.09,2.36-.27l2.41-.57c3.42-.81,7.02-.28,10.07,1.46l2.58,1.47c4.51-.77,7.7-1.13,12.27-.82l2.87-2.45c.7-.6,1.59-.93,2.51-.93h4.77c.42,0,.84-.07,1.24-.2l3.77-1.28c.78-.26,1.62-.27,2.4-.03l12.22,3.85c2.14.67,4.01,2.01,5.34,3.81l5.08,6.88c1.54,2.09,3.8,3.54,6.33,4.07l1.59.34c2.46.52,4.66,1.9,6.2,3.89l7.88,10.2c.47.6,1.02,1.13,1.65,1.57l.09.06c1.64,1.15,2.76,2.9,3.11,4.87l1.31,7.41c.08.44.12.88.12,1.32v1.77c0,1.01.2,2,.59,2.93l2.4,5.72c.48,1.14.27,2.45-.54,3.38h0c-.64.74-.92,1.73-.74,2.7l4.15,22.98c.16.87-.08,1.77-.65,2.45l-.43.52c-1.19,1.42-3.37,1.44-4.57.02l-.89-1.05c-.59-.7-.84-1.63-.66-2.53l.4-2c.13-.66-.13-1.33-.67-1.72h0c-.99-.72-2.39-.19-2.67,1l-.48,2.09c-.07.28-.06.58.02.86.56,1.92,3.16,9.45,3.47,10.18.54,1.26-1.69,1.44-2.95,1.99-.51.22-1.09.18-1.57-.11l-1.41-.86c-.64-.39-1.46-.32-2.03.18l-1.66,1.48c-.4.35-.61.87-.57,1.4l.58,8.31c.05.71-.15,1.41-.56,1.99l-2.67,3.73c-.72,1.01-1.97,1.48-3.18,1.2l-.77-.18c-1.17-.27-2.07-1.19-2.31-2.36l-1.25-6.06c-.29-1.42-1.55-2.44-3-2.44h0c-1.55,0-2.86,1.16-3.04,2.7l-.84,7.07c-.06.54-.27,1.06-.61,1.5l-1.18,1.55c-.58.76-1.48,1.2-2.43,1.2h-1.99c-1.2,0-2.29-.7-2.79-1.8l-2.16-4.77c-.29-.63-.35-1.35-.18-2.02l1.71-6.69.89-4.72-.05-.36Z"/>
  </g>
</svg>