<?xml version="1.0" encoding="UTF-8"?>
<svg id="Capa_2" data-name="Capa 2" xmlns="http://www.w3.org/2000/svg" xmlns:xlink="http://www.w3.org/1999/xlink" viewBox="0 0 77.23 15.94">
  <defs>
    <style>
      .cls-1 {
        fill: none;
        stroke: #000;
        stroke-miterlimit: 10;
      }

      .cls-2 {
        fill: url(#radial-gradient);
      }

      .cls-3 {
        fill: url(#radial-gradient-3);
      }

      .cls-4 {
        fill: url(#radial-gradient-2);
      }

      .cls-5 {
        fill: url(#radial-gradient-4);
      }
    </style>
    <radialGradient id="radial-gradient" cx="60.97" cy="7.97" fx="60.97" fy="7.97" r="12.33" gradientUnits="userSpaceOnUse">
      <stop offset=".04" stop-color="#fff"/>
      <stop offset="1" stop-color="#abadb0"/>
    </radialGradient>
    <radialGradient id="radial-gradient-2" cx="59.92" cy="7.97" fx="59.92" fy="7.97" r="4.82" gradientUnits="userSpaceOnUse">
      <stop offset=".3" stop-color="#7e8083"/>
      <stop offset="1" stop-color="#000"/>
    </radialGradient>
    <radialGradient id="radial-gradient-3" cx="16.25" fx="16.25" r="12.33" xlink:href="#radial-gradient"/>
    <radialGradient id="radial-gradient-4" cx="17.31" fx="17.31" r="4.82" xlink:href="#radial-gradient-2"/>
  </defs>
  <g id="Layer_1" data-name="Layer 1">
    <g>
      <path class="cls-2" d="M76.73,9.39v.67c-.47,3-7.11,5.38-15.23,5.38-7.09,0-14.06-2.41-16.04-5.02-.41-.54-.3-1.31.24-1.73,3.89-3.08,8.9-8.94,15.8-8.11,7.25.88,11.6,4.8,15.23,8.81ZM64.74,7.97c0-2.66-2.16-4.82-4.82-4.82s-4.82,2.16-4.82,4.82,2.15,4.82,4.82,4.82,4.82-2.16,4.82-4.82Z"/>
      <path class="cls-4" d="M59.92,3.15c2.66,0,4.82,2.16,4.82,4.82s-2.16,4.82-4.82,4.82-4.82-2.16-4.82-4.82,2.15-4.82,4.82-4.82Z"/>
      <path class="cls-3" d="M31.53,8.69c.53.42.64,1.19.23,1.73-1.97,2.61-8.94,5.02-16.03,5.02C7.6,15.44.96,13.06.5,10.06v-.67C4.12,5.38,8.48,1.46,15.73.58c6.9-.83,11.9,5.03,15.8,8.11ZM22.13,7.97c0-2.66-2.16-4.82-4.82-4.82s-4.82,2.16-4.82,4.82,2.15,4.82,4.82,4.82,4.82-2.16,4.82-4.82Z"/>
      <path class="cls-5" d="M17.31,3.15c2.66,0,4.82,2.16,4.82,4.82s-2.16,4.82-4.82,4.82-4.82-2.16-4.82-4.82,2.15-4.82,4.82-4.82Z"/>
      <path class="cls-1" d="M.5,9.39C4.12,5.38,8.48,1.46,15.73.58c6.9-.83,11.9,5.03,15.8,8.11.53.42.64,1.19.23,1.73-1.97,2.61-8.94,5.02-16.03,5.02C7.6,15.44.96,13.06.5,10.06v-.67Z"/>
      <path class="cls-1" d="M22.13,7.97c0,2.66-2.16,4.82-4.82,4.82s-4.82-2.16-4.82-4.82,2.15-4.82,4.82-4.82,4.82,2.16,4.82,4.82Z"/>
      <path class="cls-1" d="M76.73,9.39c-3.63-4.01-7.98-7.93-15.23-8.81-6.9-.83-11.91,5.03-15.8,8.11-.54.42-.65,1.19-.24,1.73,1.98,2.61,8.95,5.02,16.04,5.02,8.12,0,14.76-2.38,15.23-5.38v-.67Z"/>
      <path class="cls-1" d="M55.1,7.97c0,2.66,2.15,4.82,4.82,4.82s4.82-2.16,4.82-4.82-2.16-4.82-4.82-4.82-4.82,2.16-4.82,4.82Z"/>
    </g>
  </g>
</svg>