<?xml version="1.0" encoding="UTF-8"?>
<svg id="Capa_2" data-name="Capa 2" xmlns="http://www.w3.org/2000/svg" xmlns:xlink="http://www.w3.org/1999/xlink" viewBox="0 0 83.27 31.41">
  <defs>
    <style>
      .cls-1 {
        fill: none;
        stroke: #000;
        stroke-miterlimit: 10;
      }

      .cls-2 {
        fill: url(#radial-gradient-5);
      }

      .cls-3 {
        fill: url(#radial-gradient);
      }

      .cls-4 {
        fill: url(#radial-gradient-3);
      }

      .cls-5 {
        fill: url(#radial-gradient-2);
      }

      .cls-6 {
        fill: url(#radial-gradient-4);
      }

      .cls-7 {
        fill: url(#radial-gradient-6);
      }

      .cls-8 {
        fill: url(#radial-gradient-7);
      }
    </style>
    <radialGradient id="radial-gradient" cx="72.46" cy="21.2" fx="72.46" fy="21.2" r="9.59" gradientUnits="userSpaceOnUse">
      <stop offset=".3" stop-color="#7e8083"/>
      <stop offset="1" stop-color="#000"/>
    </radialGradient>
    <radialGradient id="radial-gradient-2" cx="63.94" cy="15.55" fx="63.94" fy="15.55" r="11.35" gradientUnits="userSpaceOnUse">
      <stop offset=".04" stop-color="#fff"/>
      <stop offset="1" stop-color="#abadb0"/>
    </radialGradient>
    <radialGradient id="radial-gradient-3" cx="63.33" cy="15.55" fx="63.33" fy="15.55" r="4.74" xlink:href="#radial-gradient"/>
    <radialGradient id="radial-gradient-4" cx="53.66" cy="19.78" fx="53.66" fy="19.78" r="9.37" xlink:href="#radial-gradient"/>
    <radialGradient id="radial-gradient-5" cx="19.81" cy="20.31" fx="19.81" fy="20.31" r="15.15" xlink:href="#radial-gradient"/>
    <radialGradient id="radial-gradient-6" cx="19.33" cy="15.55" fx="19.33" fy="15.55" r="11.36" xlink:href="#radial-gradient-2"/>
    <radialGradient id="radial-gradient-7" cx="19.93" cy="15.55" fx="19.93" fy="15.55" r="4.74" xlink:href="#radial-gradient"/>
  </defs>
  <g id="Layer_1" data-name="Layer 1">
    <g>
      <path class="cls-3" d="M77.3,11.85l4.98,6.84h-4.47l.52,6.85-4.56-2.29-.44,4.22-3.68-2.64-3.6,5.71-3.42-4.39.04-1.76c.86.08,1.74.08,2.63-.01,6.82-.72,11.99-5.9,12-12.53Z"/>
      <path class="cls-5" d="M77.23,10.48c.05.46.07.92.07,1.37-.01,6.63-5.18,11.81-12,12.53-.89.09-1.77.09-2.63.01-6.18-.59-11.35-5.5-12.03-11.89-.04-.38-.06-.76-.07-1.14-.01-.46.08-.9.27-1.29.33-.77.98-1.39,1.82-1.67,7.46-2.49,15.55-2.32,22.9.47l.87.34c.44.16.74.56.78,1.03.01.12.02.21.02.24ZM68.07,15.55c0-2.62-2.12-4.74-4.74-4.74s-4.74,2.12-4.74,4.74,2.13,4.74,4.74,4.74,4.74-2.12,4.74-4.74Z"/>
      <path class="cls-4" d="M63.33,10.81c2.62,0,4.74,2.12,4.74,4.74s-2.12,4.74-4.74,4.74-4.74-2.12-4.74-4.74,2.13-4.74,4.74-4.74Z"/>
      <path class="cls-6" d="M62.67,24.39l-.04,1.76-2.64,3.33-1.84-3.94-5.18,2.8-1.05-5.7-5.35.53,2.1-5.88-4.03-1.23,6.19-5.99h.01c-.19.39-.28.83-.27,1.29,0,.38.03.76.07,1.14.68,6.39,5.85,11.3,12.03,11.89Z"/>
      <path class="cls-2" d="M38.63,16.06l-4.04,1.23,2.11,5.88-5.36-.53-1.05,5.7-5.18-2.8-1.84,3.94-2.63-3.33-3.42,4.39-3.6-5.71-3.69,2.64-.44-4.22-4.56,2.29.53-6.85H.98l4.98-6.84c.01,6.63,5.2,11.81,12,12.53,7.28.76,13.9-4.6,14.66-11.88.04-.38.07-.76.07-1.14.01-.46-.08-.9-.26-1.29h.01l6.19,5.99Z"/>
      <path class="cls-7" d="M32.43,10.07c.18.39.27.83.26,1.29,0,.38-.03.76-.07,1.14-.76,7.28-7.38,12.64-14.66,11.88-6.8-.72-11.99-5.9-12-12.53,0-.45.02-.91.07-1.37.01-.03.01-.12.02-.24.04-.47.34-.87.78-1.03l.87-.34c7.35-2.79,15.45-2.96,22.91-.47.84.28,1.49.89,1.82,1.67ZM24.67,15.55c0-2.62-2.12-4.74-4.74-4.74s-4.74,2.12-4.74,4.74,2.12,4.74,4.74,4.74,4.74-2.12,4.74-4.74Z"/>
      <circle class="cls-8" cx="19.93" cy="15.55" r="4.74"/>
      <path class="cls-1" d="M5.96,11.85c0-.45.02-.91.07-1.37.01-.03.01-.12.02-.24.04-.47.34-.87.78-1.03l.87-.34c7.35-2.79,15.45-2.96,22.91-.47.84.28,1.49.89,1.82,1.67.18.39.27.83.26,1.29,0,.38-.03.76-.07,1.14-.76,7.28-7.38,12.64-14.66,11.88-6.8-.72-11.99-5.9-12-12.53Z"/>
      <circle class="cls-1" cx="19.93" cy="15.55" r="4.74"/>
      <polyline class="cls-1" points="5.96 11.85 .98 18.69 5.46 18.69 4.93 25.54 9.49 23.25 9.93 27.47 13.62 24.83 17.22 30.54 20.64 26.15 23.27 29.48 25.11 25.54 30.29 28.34 31.34 22.64 36.7 23.17 34.59 17.29 38.63 16.06 32.44 10.07"/>
      <path class="cls-1" d="M77.3,11.85c0-.45-.02-.91-.07-1.37,0-.03-.01-.12-.02-.24-.04-.47-.34-.87-.78-1.03l-.87-.34c-7.35-2.79-15.44-2.96-22.9-.47-.84.28-1.49.9-1.82,1.67-.19.39-.28.83-.27,1.29,0,.38.03.76.07,1.14.68,6.39,5.85,11.3,12.03,11.89.86.08,1.74.08,2.63-.01,6.82-.72,11.99-5.9,12-12.53Z"/>
      <path class="cls-1" d="M58.59,15.55c0,2.62,2.13,4.74,4.74,4.74s4.74-2.12,4.74-4.74-2.12-4.74-4.74-4.74-4.74,2.12-4.74,4.74Z"/>
      <polyline class="cls-1" points="77.3 11.85 82.28 18.69 77.81 18.69 78.33 25.54 73.77 23.25 73.33 27.47 69.65 24.83 66.05 30.54 62.63 26.15 59.99 29.48 58.15 25.54 52.97 28.34 51.92 22.64 46.57 23.17 48.67 17.29 44.64 16.06 50.83 10.07"/>
      <path class="cls-1" d="M62.92,6.42c.68-1.66,1.5-3.47,2.48-4.97"/>
      <path class="cls-1" d="M67.27,6.65c.85-2.04,2.06-4.25,3.4-6"/>
      <path class="cls-1" d="M73.33,7.92c.7-2.62,2.42-5.6,4.27-7.58"/>
      <path class="cls-1" d="M17.6,6.5c-.7-1.65-1.55-3.44-2.56-4.92"/>
      <path class="cls-1" d="M13.32,7.01c-.89-2.02-2.19-4.43-3.55-6.16"/>
      <path class="cls-1" d="M7.44,8.7C6.7,6.09,4.71,2.6,2.83.65"/>
    </g>
  </g>
</svg>