<?xml version="1.0" encoding="UTF-8"?>
<svg id="Capa_2" data-name="Capa 2" xmlns="http://www.w3.org/2000/svg" xmlns:xlink="http://www.w3.org/1999/xlink" viewBox="0 0 75.84 34.29">
  <defs>
    <style>
      .cls-1 {
        fill: none;
        stroke: #000;
        stroke-miterlimit: 10;
      }

      .cls-2 {
        fill: url(#radial-gradient-5);
      }

      .cls-3 {
        fill: url(#radial-gradient);
      }

      .cls-4 {
        fill: url(#radial-gradient-3);
      }

      .cls-5 {
        fill: url(#radial-gradient-2);
      }

      .cls-6 {
        fill: url(#radial-gradient-4);
      }
    </style>
    <radialGradient id="radial-gradient" cx="58.77" cy="17.07" fx="58.77" fy="17.07" r="13.13" gradientUnits="userSpaceOnUse">
      <stop offset=".04" stop-color="#fff"/>
      <stop offset="1" stop-color="#abadb0"/>
    </radialGradient>
    <radialGradient id="radial-gradient-2" cx="61.17" cy="19.42" fx="61.17" fy="19.42" r="4.76" gradientUnits="userSpaceOnUse">
      <stop offset=".3" stop-color="#7e8083"/>
      <stop offset="1" stop-color="#000"/>
    </radialGradient>
    <radialGradient id="radial-gradient-3" cx="24.24" cy="22.76" fx="24.24" fy="22.76" r="8.82" xlink:href="#radial-gradient"/>
    <radialGradient id="radial-gradient-4" cx="17.11" cy="22.22" fx="17.11" fy="22.22" r="4.77" xlink:href="#radial-gradient-2"/>
    <radialGradient id="radial-gradient-5" cx="8.88" cy="24.74" fx="8.88" fy="24.74" r="8.72" xlink:href="#radial-gradient"/>
  </defs>
  <g id="Layer_1" data-name="Layer 1">
    <g>
      <path class="cls-1" d="M71.65,7.84c.54-2.66,2.07-5.44,3.8-7.52"/>
      <g>
        <path class="cls-3" d="M73.19,12.59c.19,1,.14,2.02-.03,3.02-.19,1.13.54,2.89-.08,4.26-.38.83-.64,1.61-.86,2.35-.96,3.22-3.69,5.59-7,6.14h-.05c-1.05.18-2.12-.05-3.18.05-3.49.33-6.58.16-8.85-.1-4.1-.48-7.56-3.32-8.79-7.26-.04-.14-.07-.21-.07-.21-.09-.59-.1-1.17-.04-1.74.45-4.18,4.46-7.06,8.61-6.37.03,0,.07.01.1.01,1.12.19,2.26-.13,3.12-.88,2.37-2.04,5.45-4.11,7.11-5.19,1.11-.73,2.41-1.15,3.75-1.13,4.33.09,5.78,4.39,6.26,7.05ZM65.93,19.42c0-2.63-2.13-4.76-4.76-4.76s-4.77,2.13-4.77,4.76,2.13,4.77,4.77,4.77,4.76-2.13,4.76-4.77Z"/>
        <path class="cls-5" d="M61.17,14.66c2.63,0,4.76,2.13,4.76,4.76s-2.13,4.77-4.76,4.77-4.77-2.13-4.77-4.77,2.13-4.76,4.77-4.76Z"/>
        <path class="cls-4" d="M25.32,15.01c4.79.72,8.4,4.81,8.39,9.66,0,.26-.01.41-.01.41-3.56,8.35-10.34,5.22-10.34,5.22-1.96-.8-4.19-.95-6.11-.86l-.1-2.45c2.61-.02,4.72-2.14,4.72-4.77s-2.13-4.76-4.76-4.76c-.66,0-1.29.13-1.86.37l-.48-2.13c.66-.13,1.3-.31,1.95-.5,2.66-.78,5.89-.61,8.6-.19Z"/>
        <path class="cls-6" d="M17.11,17.46c2.63,0,4.76,2.13,4.76,4.76s-2.11,4.75-4.72,4.77h-.04c-2.64,0-4.77-2.13-4.77-4.77,0-1.97,1.2-3.66,2.91-4.39.57-.24,1.2-.37,1.86-.37Z"/>
        <path class="cls-2" d="M17.15,26.99l.1,2.45c-.33.02-.65.04-.95.07-2.01.18-3.96.89-5.59,2.07-4.25,3.08-6.15,2.04-6.15,2.04C-.5,31.16.1,25.53,1.43,21.35c.85-2.69,3.27-4.58,6.09-4.73,2.27-.11,4.88-.5,6.53-.78.24-.04.48-.09.72-.14l.48,2.13c-1.71.73-2.91,2.42-2.91,4.39,0,2.64,2.13,4.77,4.77,4.77h.04Z"/>
        <path class="cls-1" d="M14.77,15.7c-.24.05-.48.1-.72.14-1.65.28-4.26.67-6.53.78-2.82.15-5.24,2.04-6.09,4.73-1.33,4.18-1.93,9.81,3.13,12.27,0,0,1.9,1.04,6.15-2.04,1.63-1.18,3.58-1.89,5.59-2.07.3-.03.62-.05.95-.07,1.92-.09,4.15.06,6.11.86,0,0,6.78,3.13,10.34-5.22,0,0,.01-.15.01-.41.01-4.85-3.6-8.94-8.39-9.66-2.71-.42-5.94-.59-8.6.19-.65.19-1.29.37-1.95.5Z"/>
        <path class="cls-1" d="M44.24,19.1c-.06.57-.05,1.15.04,1.74,0,0,.03.07.07.21,1.23,3.94,4.69,6.78,8.79,7.26,2.27.26,5.36.43,8.85.1,1.06-.1,2.13.13,3.18-.04h.05c3.31-.56,6.04-2.93,7-6.15.22-.74.48-1.52.86-2.35.62-1.37-.11-3.13.08-4.26.17-1,.22-2.02.03-3.02-.48-2.66-1.93-6.96-6.26-7.05-1.34-.02-2.64.4-3.75,1.13-1.66,1.08-4.74,3.15-7.11,5.19-.86.75-2,1.07-3.12.88-.03,0-.07-.01-.1-.01-4.15-.69-8.16,2.19-8.61,6.37Z"/>
        <path class="cls-1" d="M15.25,17.83c.57-.24,1.2-.37,1.86-.37,2.63,0,4.76,2.13,4.76,4.76s-2.11,4.75-4.72,4.77h-.04c-2.64,0-4.77-2.13-4.77-4.77,0-1.97,1.2-3.66,2.91-4.39Z"/>
        <path class="cls-1" d="M65.93,19.42c0,2.64-2.13,4.77-4.76,4.77s-4.77-2.13-4.77-4.77,2.13-4.76,4.77-4.76,4.76,2.13,4.76,4.76Z"/>
        <path class="cls-1" d="M61.17,7.84c.57-1.7,1.28-4.12,2.17-5.68"/>
        <path class="cls-1" d="M65.93,5.54c.73-2.08,1.39-2.67,2.62-4.5"/>
        <path class="cls-1" d="M15.38,15.3c-.64-1.67-1.31-3.18-2.26-4.7"/>
        <path class="cls-1" d="M11.24,15.95c-.82-2.04-2.07-4.48-3.37-6.26"/>
        <path class="cls-1" d="M5.27,16.92c-.65-2.63-2.51-5.65-4.33-7.66"/>
      </g>
    </g>
  </g>
</svg>